<?xml version="1.0" encoding="UTF-8"?>
<!-- Generator: CustomSymbols v2.6.2.41 by @serious_bret https://bretlester.com/app_content/CustomSymbols/ -->
<!-- Guides: Left/Right 0.084/0.084 Cap/Base 0.171/0.171 -->
<!-- Settings: RefScale 1.0 Min/Max Stroke Scales 0.5/2.21 -->
<!DOCTYPE svg
PUBLIC "-//W3C//DTD SVG 1.1//EN"
       "http://www.w3.org/Graphics/SVG/1.1/DTD/svg11.dtd">
<svg version="1.1" xmlns="http://www.w3.org/2000/svg" xmlns:xlink="http://www.w3.org/1999/xlink" width="3300" height="2200">
<![CDATA[<svg width="92" height="92" viewBox="0 0 92 92" fill="none" xmlns="http://www.w3.org/2000/svg">
<g id="Regular-S">
<path id="Vector" d="M45.6191 83.791C52.6991 83.791 59.3886 81.7402 65.1015 78.2734L59.7304 72.9023C55.5312 75.0996 50.746 76.3691 45.6191 76.3691C28.8222 76.3691 15.3945 62.9414 15.3945 46.0957C15.3945 40.9687 16.6152 36.1836 18.8613 32.0332L13.3925 26.5644C9.97454 32.3262 7.92384 39.0156 7.92384 46.0957C7.92384 66.7012 25.0136 83.791 45.6191 83.791ZM45.5702 15.8223C62.3671 15.8223 75.8437 29.25 75.8925 46.0957C75.8925 51.125 74.6718 55.8613 72.5234 60.0117L77.8945 65.3828C81.3124 59.7676 83.3141 53.1269 83.3141 46.0957C83.3141 25.4902 66.2245 8.40039 45.5702 8.40039C38.5878 8.40039 31.9472 10.4023 26.332 13.7715L31.7031 19.2402C35.8534 17.043 40.5409 15.8223 45.5702 15.8223ZM59.4863 46.9746C60.707 45.1191 61.4394 42.8242 61.4394 40.1875C61.4394 32.9609 56.2636 28.0781 48.5488 28.0781H40.7363L45.9609 33.3516H47.4257C51.9179 33.3516 54.5546 35.8906 54.5546 40.1875C54.5546 40.7734 54.457 41.3105 54.2616 41.75L59.4863 46.9746ZM37.8554 63.6738C40.1503 63.6738 41.371 62.209 41.371 59.7676V54.6406L34.4374 47.707V59.7676C34.4374 62.1113 35.6093 63.6738 37.8554 63.6738Z" fill="black"/>
<path id="Vector_2" d="M85.8531 90.9199C87.1721 92.2383 89.3201 92.2383 90.5901 90.9199C91.8591 89.6016 91.9081 87.5019 90.5901 86.1836L5.87304 1.418C4.55464 0.0995992 2.35734 0.0995992 1.03904 1.418C-0.230461 2.6875 -0.230461 4.8848 1.03904 6.1543L85.8531 90.9199Z" fill="black"/>
</g>
</svg>
]]>
 <g id="Notes">
  <rect height="2200" id="artboard" style="fill:white;opacity:1" width="3300" x="0" y="0"/>
  <line id="" style="fill:none;stroke:black;opacity:1;stroke-width:0.5;" x1="263" x2="3036" y1="292" y2="292"/>
  <text id="reftext1" style="stroke:none;fill:black;font-family:-apple-system,&quot;SF Pro Display&quot;,&quot;SF Pro Text&quot;,Helvetica,sans-serif;font-weight:bold;" transform="matrix(1 0 0 1 263 322)">Weight/Scale Variations</text>
  <text id="reftext2" style="stroke:none;fill:black;font-family:-apple-system,&quot;SF Pro Display&quot;,&quot;SF Pro Text&quot;,Helvetica,sans-serif;text-anchor:middle;" transform="matrix(1 0 0 1 559.711 322)">Ultralight</text>
  <text style="stroke:none;fill:black;font-family:-apple-system,&quot;SF Pro Display&quot;,&quot;SF Pro Text&quot;,Helvetica,sans-serif;text-anchor:middle;" transform="matrix(1 0 0 1 856.422 322)">Thin</text>
  <text style="stroke:none;fill:black;font-family:-apple-system,&quot;SF Pro Display&quot;,&quot;SF Pro Text&quot;,Helvetica,sans-serif;text-anchor:middle;" transform="matrix(1 0 0 1 1153.13 322)">Light</text>
  <text style="stroke:none;fill:black;font-family:-apple-system,&quot;SF Pro Display&quot;,&quot;SF Pro Text&quot;,Helvetica,sans-serif;text-anchor:middle;" transform="matrix(1 0 0 1 1449.84 322)">Regular</text>
  <text style="stroke:none;fill:black;font-family:-apple-system,&quot;SF Pro Display&quot;,&quot;SF Pro Text&quot;,Helvetica,sans-serif;text-anchor:middle;" transform="matrix(1 0 0 1 1746.56 322)">Medium</text>
  <text style="stroke:none;fill:black;font-family:-apple-system,&quot;SF Pro Display&quot;,&quot;SF Pro Text&quot;,Helvetica,sans-serif;text-anchor:middle;" transform="matrix(1 0 0 1 2043.27 322)">Semibold</text>
  <text style="stroke:none;fill:black;font-family:-apple-system,&quot;SF Pro Display&quot;,&quot;SF Pro Text&quot;,Helvetica,sans-serif;text-anchor:middle;" transform="matrix(1 0 0 1 2339.98 322)">Bold</text>
  <text style="stroke:none;fill:black;font-family:-apple-system,&quot;SF Pro Display&quot;,&quot;SF Pro Text&quot;,Helvetica,sans-serif;text-anchor:middle;" transform="matrix(1 0 0 1 2636.69 322)">Heavy</text>
  <text style="stroke:none;fill:black;font-family:-apple-system,&quot;SF Pro Display&quot;,&quot;SF Pro Text&quot;,Helvetica,sans-serif;text-anchor:middle;" transform="matrix(1 0 0 1 2933.4 322)">Black</text>
  <line id="" style="fill:none;stroke:black;opacity:1;stroke-width:0.5;" x1="263" x2="3036" y1="1903" y2="1903"/>
  <g id="" transform="matrix(1 0 0 1 263 1933)">
   <path d="M9.24805 0.830078C13.5547 0.830078 17.1387-2.74414 17.1387-7.05078C17.1387-11.3574 13.5449-14.9316 9.23828-14.9316C4.94141-14.9316 1.36719-11.3574 1.36719-7.05078C1.36719-2.74414 4.95117 0.830078 9.24805 0.830078ZM9.24805-0.654297C5.70312-0.654297 2.87109-3.49609 2.87109-7.05078C2.87109-10.6055 5.69336-13.4473 9.23828-13.4473C12.793-13.4473 15.6348-10.6055 15.6445-7.05078C15.6543-3.49609 12.8027-0.654297 9.24805-0.654297ZM6.39648-6.31836L8.50586-6.31836L8.50586-4.19922C8.50586-3.75977 8.79883-3.45703 9.22852-3.45703C9.67773-3.45703 9.9707-3.75977 9.9707-4.19922L9.9707-6.31836L12.0996-6.31836C12.5391-6.31836 12.8418-6.61133 12.8418-7.04102C12.8418-7.48047 12.5391-7.7832 12.0996-7.7832L9.9707-7.7832L9.9707-9.89258C9.9707-10.3418 9.67773-10.6445 9.22852-10.6445C8.79883-10.6445 8.50586-10.3418 8.50586-9.89258L8.50586-7.7832L6.39648-7.7832C5.94727-7.7832 5.64453-7.48047 5.64453-7.04102C5.64453-6.61133 5.94727-6.31836 6.39648-6.31836Z"/>
  </g>
  <g id="" transform="matrix(1 0 0 1 281.506 1933)">
   <path d="M11.709 2.91016C17.1582 2.91016 21.6699-1.61133 21.6699-7.05078C21.6699-12.5 17.1484-17.0117 11.6992-17.0117C6.25977-17.0117 1.74805-12.5 1.74805-7.05078C1.74805-1.61133 6.26953 2.91016 11.709 2.91016ZM11.709 1.25C7.09961 1.25 3.41797-2.44141 3.41797-7.05078C3.41797-11.6602 7.08984-15.3516 11.6992-15.3516C16.3086-15.3516 20-11.6602 20.0098-7.05078C20.0195-2.44141 16.3184 1.25 11.709 1.25ZM7.98828-6.23047L10.8789-6.23047L10.8789-3.32031C10.8789-2.83203 11.2109-2.5 11.6895-2.5C12.1777-2.5 12.5195-2.83203 12.5195-3.32031L12.5195-6.23047L15.4297-6.23047C15.918-6.23047 16.25-6.5625 16.25-7.04102C16.25-7.5293 15.918-7.87109 15.4297-7.87109L12.5195-7.87109L12.5195-10.7617C12.5195-11.2695 12.1777-11.6016 11.6895-11.6016C11.2109-11.6016 10.8789-11.2598 10.8789-10.7617L10.8789-7.87109L7.98828-7.87109C7.48047-7.87109 7.14844-7.5293 7.14844-7.04102C7.14844-6.5625 7.49023-6.23047 7.98828-6.23047Z"/>
  </g>
  <g id="" transform="matrix(1 0 0 1 304.924 1933)">
   <path d="M14.9707 5.66406C21.9336 5.66406 27.6953-0.0976562 27.6953-7.05078C27.6953-14.0137 21.9238-19.7754 14.9609-19.7754C8.00781-19.7754 2.25586-14.0137 2.25586-7.05078C2.25586-0.0976562 8.01758 5.66406 14.9707 5.66406ZM14.9707 3.84766C8.93555 3.84766 4.08203-1.01562 4.08203-7.05078C4.08203-13.0957 8.92578-17.9492 14.9609-17.9492C21.0059-17.9492 25.8594-13.0957 25.8691-7.05078C25.8789-1.01562 21.0156 3.84766 14.9707 3.84766ZM10.0586-6.14258L14.0625-6.14258L14.0625-2.12891C14.0625-1.5918 14.4336-1.2207 14.9512-1.2207C15.4883-1.2207 15.8594-1.5918 15.8594-2.12891L15.8594-6.14258L19.8828-6.14258C20.4102-6.14258 20.791-6.51367 20.791-7.03125C20.791-7.56836 20.4199-7.94922 19.8828-7.94922L15.8594-7.94922L15.8594-11.9531C15.8594-12.5098 15.4883-12.8809 14.9512-12.8809C14.4336-12.8809 14.0625-12.5 14.0625-11.9531L14.0625-7.94922L10.0586-7.94922C9.50195-7.94922 9.13086-7.56836 9.13086-7.03125C9.13086-6.51367 9.51172-6.14258 10.0586-6.14258Z"/>
  </g>
  <text style="stroke:none;fill:black;font-family:-apple-system,&quot;SF Pro Display&quot;,&quot;SF Pro Text&quot;,Helvetica,sans-serif;font-weight:bold;" transform="matrix(1 0 0 1 263 1953)">Design Variations</text>
  <text style="stroke:none;fill:black;font-family:-apple-system,&quot;SF Pro Display&quot;,&quot;SF Pro Text&quot;,Helvetica,sans-serif;" transform="matrix(1 0 0 1 263 1971)">Symbols are supported in up to nine weights and three scales.</text>
  <text style="stroke:none;fill:black;font-family:-apple-system,&quot;SF Pro Display&quot;,&quot;SF Pro Text&quot;,Helvetica,sans-serif;" transform="matrix(1 0 0 1 263 1989)">For optimal layout with text and other symbols, vertically align</text>
  <text style="stroke:none;fill:black;font-family:-apple-system,&quot;SF Pro Display&quot;,&quot;SF Pro Text&quot;,Helvetica,sans-serif;" transform="matrix(1 0 0 1 263 2007)">symbols with the adjacent text.</text>
  <line id="" style="fill:none;stroke:#00AEEF;stroke-width:0.5;opacity:1.0;" x1="776" x2="776" y1="1919" y2="1933"/>
  <g id="" transform="matrix(1 0 0 1 776 1933)">
   <path d="M3.31055 0.126953C3.82812 0.126953 4.08203-0.0683594 4.26758-0.605469L5.52734-4.0625L11.2891-4.0625L12.5488-0.605469C12.7344-0.0683594 12.9883 0.126953 13.4961 0.126953C14.0137 0.126953 14.3457-0.185547 14.3457-0.673828C14.3457-0.839844 14.3164-0.986328 14.2383-1.20117L9.6582-13.3887C9.43359-13.9941 9.0332-14.2871 8.4082-14.2871C7.80273-14.2871 7.39258-13.9941 7.17773-13.3984L2.59766-1.19141C2.51953-0.976562 2.49023-0.830078 2.49023-0.664062C2.49023-0.175781 2.80273 0.126953 3.31055 0.126953ZM6.00586-5.53711L8.37891-12.1094L8.42773-12.1094L10.8008-5.53711Z"/>
  </g>
  <line id="" style="fill:none;stroke:#00AEEF;stroke-width:0.5;opacity:1.0;" x1="792.836" x2="792.836" y1="1919" y2="1933"/>
  <text style="stroke:none;fill:black;font-family:-apple-system,&quot;SF Pro Display&quot;,&quot;SF Pro Text&quot;,Helvetica,sans-serif;font-weight:bold;" transform="matrix(1 0 0 1 776 1953)">Margins</text>
  <text style="stroke:none;fill:black;font-family:-apple-system,&quot;SF Pro Display&quot;,&quot;SF Pro Text&quot;,Helvetica,sans-serif;" transform="matrix(1 0 0 1 776 1971)">Leading and trailing margins on the left and right side of each symbol</text>
  <text style="stroke:none;fill:black;font-family:-apple-system,&quot;SF Pro Display&quot;,&quot;SF Pro Text&quot;,Helvetica,sans-serif;" transform="matrix(1 0 0 1 776 1989)">can be adjusted by modifying the x-location of the margin guidelines.</text>
  <text style="stroke:none;fill:black;font-family:-apple-system,&quot;SF Pro Display&quot;,&quot;SF Pro Text&quot;,Helvetica,sans-serif;" transform="matrix(1 0 0 1 776 2007)">Modifications are automatically applied proportionally to all</text>
  <text style="stroke:none;fill:black;font-family:-apple-system,&quot;SF Pro Display&quot;,&quot;SF Pro Text&quot;,Helvetica,sans-serif;" transform="matrix(1 0 0 1 776 2025)">scales and weights.</text>
  <g id="" transform="matrix(1 0 0 1 1289 1933)">
   <path d="M2.8418 1.86523L4.54102 3.57422C5.40039 4.44336 6.38672 4.38477 7.31445 3.35938L17.4902-7.85156C17.7539-7.76367 18.0273-7.7832 18.3398-7.8418L19.4043-8.03711L20.0684-7.36328L20.0293-6.80664C19.9902-6.30859 20.1172-5.92773 20.6055-5.44922L21.3672-4.70703C21.8457-4.22852 22.4609-4.19922 22.9297-4.66797L25.8398-7.58789C26.3086-8.05664 26.2891-8.65234 25.8105-9.13086L25.0391-9.89258C24.5605-10.3711 24.1895-10.5273 23.7109-10.4883L23.1348-10.4395L22.4902-11.0742L22.7344-12.1973C22.8613-12.7637 22.7051-13.2031 22.1191-13.7891L19.9219-15.9766C16.582-19.2969 12.1484-19.2188 9.25781-16.3281C8.83789-15.918 8.80859-15.3418 9.04297-14.9512C9.27734-14.5898 9.73633-14.3555 10.3809-14.5215C11.8457-14.8633 13.3691-14.9219 14.7949-13.9844L14.209-12.5293C14.0137-12.0508 13.9844-11.6504 14.1113-11.2891L3.04688-0.898438C2.06055 0.0195312 1.98242 0.996094 2.8418 1.86523ZM10.752-15.957C13.1836-17.7344 16.4746-17.4316 18.7012-15.2051L21.1328-12.793C21.3672-12.5586 21.4062-12.373 21.3379-12.0312L21.0156-10.5469L22.5195-9.0625L23.5059-9.12109C23.7598-9.13086 23.8379-9.11133 24.0332-8.91602L24.6094-8.33984L22.168-5.89844L21.5918-6.47461C21.3965-6.66992 21.3672-6.74805 21.377-7.01172L21.4453-7.98828L19.9512-9.47266L18.4277-9.21875C18.1055-9.15039 17.959-9.17969 17.7148-9.41406L15.7129-11.416C15.459-11.6504 15.4297-11.8164 15.5859-12.1875L16.4648-14.2773C14.9023-15.7324 12.8711-16.3574 10.8398-15.7617C10.6836-15.7227 10.625-15.8496 10.752-15.957ZM5.27344 2.30469L4.10156 1.14258C3.63281 0.683594 3.74023 0.341797 4.14062-0.0195312L14.9512-10.1953L16.416-8.71094L6.42578 2.27539C6.07422 2.67578 5.74219 2.77344 5.27344 2.30469Z"/>
  </g>
  <text style="stroke:none;fill:black;font-family:-apple-system,&quot;SF Pro Display&quot;,&quot;SF Pro Text&quot;,Helvetica,sans-serif;font-weight:bold;" transform="matrix(1 0 0 1 1289 1953)">Exporting</text>
  <text style="stroke:none;fill:black;font-family:-apple-system,&quot;SF Pro Display&quot;,&quot;SF Pro Text&quot;,Helvetica,sans-serif;" transform="matrix(1 0 0 1 1289 1971)">Symbols should be outlined when exporting to ensure the</text>
  <text style="stroke:none;fill:black;font-family:-apple-system,&quot;SF Pro Display&quot;,&quot;SF Pro Text&quot;,Helvetica,sans-serif;" transform="matrix(1 0 0 1 1289 1989)">design is preserved when submitting to Xcode.</text>
  <text id="template-version" style="stroke:none;fill:black;font-family:-apple-system,&quot;SF Pro Display&quot;,&quot;SF Pro Text&quot;,Helvetica,sans-serif;text-anchor:end;" transform="matrix(1 0 0 1 3036 1933)">Template v.2.0</text>
  <text style="stroke:none;fill:black;font-family:-apple-system,&quot;SF Pro Display&quot;,&quot;SF Pro Text&quot;,Helvetica,sans-serif;text-anchor:end;" transform="matrix(1 0 0 1 3036 1951)">Requires Xcode 12 or greater</text>
  <text style="stroke:none;fill:black;font-family:-apple-system,&quot;SF Pro Display&quot;,&quot;SF Pro Text&quot;,Helvetica,sans-serif;" transform="matrix(1 0 0 1 263 726)">Small</text>
  <text style="stroke:none;fill:black;font-family:-apple-system,&quot;SF Pro Display&quot;,&quot;SF Pro Text&quot;,Helvetica,sans-serif;" transform="matrix(1 0 0 1 263 1156)">Medium</text>
  <text style="stroke:none;fill:black;font-family:-apple-system,&quot;SF Pro Display&quot;,&quot;SF Pro Text&quot;,Helvetica,sans-serif;" transform="matrix(1 0 0 1 263 1586)">Large</text>
 </g>
 <g id="Guides">
  <g id="H-reference" style="fill:#27AAE1;stroke:none;" transform="matrix(1 0 0 1 339 696)">
   <path d="M0.976562 0L3.66211 0L12.9883-24.4629L45.752-24.4629L55.127 0L57.7637 0L30.6152-70.459L28.125-70.459ZM29.3457-67.1387L29.4434-67.1387L44.873-26.709L13.8672-26.709Z"/>
  </g>
  <line id="Baseline-S" style="fill:none;stroke:#27AAE1;opacity:1;stroke-width:0.5;" x1="263" x2="3036" y1="696" y2="696"/>
  <line id="Capline-S" style="fill:none;stroke:#27AAE1;opacity:1;stroke-width:0.5;" x1="263" x2="3036" y1="625.541" y2="625.541"/>
  <g id="H-reference" style="fill:#27AAE1;stroke:none;" transform="matrix(1 0 0 1 339 1126)">
   <path d="M0.976562 0L3.66211 0L12.9883-24.4629L45.752-24.4629L55.127 0L57.7637 0L30.6152-70.459L28.125-70.459ZM29.3457-67.1387L29.4434-67.1387L44.873-26.709L13.8672-26.709Z"/>
  </g>
  <line id="Baseline-M" style="fill:none;stroke:#27AAE1;opacity:1;stroke-width:0.5;" x1="263" x2="3036" y1="1126" y2="1126"/>
  <line id="Capline-M" style="fill:none;stroke:#27AAE1;opacity:1;stroke-width:0.5;" x1="263" x2="3036" y1="1055.54" y2="1055.54"/>
  <g id="H-reference" style="fill:#27AAE1;stroke:none;" transform="matrix(1 0 0 1 339 1556)">
   <path d="M0.976562 0L3.66211 0L12.9883-24.4629L45.752-24.4629L55.127 0L57.7637 0L30.6152-70.459L28.125-70.459ZM29.3457-67.1387L29.4434-67.1387L44.873-26.709L13.8672-26.709Z"/>
  </g>
  <line id="Baseline-L" style="fill:none;stroke:#27AAE1;opacity:1;stroke-width:0.5;" x1="263" x2="3036" y1="1556" y2="1556"/>
  <line id="Capline-L" style="fill:none;stroke:#27AAE1;opacity:1;stroke-width:0.5;" x1="263" x2="3036" y1="1485.54" y2="1485.54"/>
  <line id="left-margin" x1="1406.5838848784192" x2="1406.5838848784192" y1="1030.79" y2="1150.12" style="fill:none;stroke:#00AEEF;stroke-width:0.5;opacity:1.0;"/>
  <line id="right-margin" x1="1495.6761151215806" x2="1495.6761151215806" y1="1030.79" y2="1150.12" style="fill:none;stroke:#00AEEF;stroke-width:0.5;opacity:1.0;"/>
 </g>
 <g id="Symbols">
  <g id="Black-L" transform="matrix(1.0,0.0,0.0,1.0,2865.6121051600494,1451.7021246912993)">  <path stroke="none" fill="#000000" stroke-miterlimit="4" stroke-dasharray="none" stroke-opacity="1" stroke-width="1px" fill-opacity="1" stroke-linecap="butt" fill-rule="nonzero" stroke-linejoin="miter" d="M68.496,125.81C79.126,125.81,89.171,122.731,97.748,117.526L89.684,109.461C83.379,112.76,76.194,114.666,68.496,114.666C43.276,114.666,23.114,94.505,23.114,69.212C23.114,61.514,24.947,54.329,28.32,48.097L20.109,39.886C14.977,48.537,11.897,58.581,11.897,69.212C11.897,100.15,37.557,125.81,68.496,125.81ZM68.423,23.757C93.643,23.757,113.877,43.918,113.951,69.212C113.951,76.763,112.118,83.874,108.892,90.106L116.957,98.171C122.089,89.74,125.094,79.769,125.094,69.212C125.094,38.273,99.434,12.613,68.423,12.613C57.939,12.613,47.968,15.619,39.537,20.678L47.601,28.889C53.833,25.59,60.871,23.757,68.423,23.757ZM89.317,70.531C91.15,67.745,92.25,64.3,92.25,60.341C92.25,49.49,84.478,42.159,72.895,42.159L61.165,42.159L69.009,50.077L71.209,50.077C77.953,50.077,81.912,53.889,81.912,60.341C81.912,61.22,81.766,62.027,81.472,62.687L89.317,70.531ZM56.839,95.605C60.285,95.605,62.118,93.405,62.118,89.74L62.118,82.042L51.707,71.631L51.707,89.74C51.707,93.259,53.467,95.605,56.839,95.605ZM56.839,95.605"/>
  <path stroke-miterlimit="4" fill="#000000" stroke-opacity="1" stroke="none" stroke-width="1px" fill-rule="nonzero" stroke-dasharray="none" stroke-linecap="butt" fill-opacity="1" stroke-linejoin="miter" d="M128.906,136.514C130.887,138.494,134.112,138.494,136.019,136.514C137.924,134.535,137.998,131.382,136.019,129.403L8.818,2.129C6.839,0.15,3.539,0.15,1.56,2.129C-0.346,4.035,-0.346,7.334,1.56,9.241L128.906,136.514ZM128.906,136.514"/>
</g>
  <g id="Heavy-L" transform="matrix(1.0,0.0,0.0,1.0,2568.9021051600494,1451.7021246912993)">  <path stroke-dasharray="none" stroke-miterlimit="4" stroke-linecap="butt" stroke-linejoin="miter" fill-opacity="1" stroke-width="1px" stroke-opacity="1" fill="#000000" fill-rule="nonzero" stroke="none" d="M68.496,125.81C79.126,125.81,89.171,122.731,97.748,117.526L89.684,109.461C83.379,112.76,76.194,114.666,68.496,114.666C43.276,114.666,23.114,94.505,23.114,69.212C23.114,61.514,24.947,54.329,28.32,48.097L20.109,39.886C14.977,48.537,11.897,58.581,11.897,69.212C11.897,100.15,37.557,125.81,68.496,125.81ZM68.423,23.757C93.643,23.757,113.877,43.918,113.951,69.212C113.951,76.763,112.118,83.874,108.892,90.106L116.957,98.171C122.089,89.74,125.094,79.769,125.094,69.212C125.094,38.273,99.434,12.613,68.423,12.613C57.939,12.613,47.968,15.619,39.537,20.678L47.601,28.889C53.833,25.59,60.871,23.757,68.423,23.757ZM89.317,70.531C91.15,67.745,92.25,64.3,92.25,60.341C92.25,49.49,84.478,42.159,72.895,42.159L61.165,42.159L69.009,50.077L71.209,50.077C77.953,50.077,81.912,53.889,81.912,60.341C81.912,61.22,81.766,62.027,81.472,62.687L89.317,70.531ZM56.839,95.605C60.285,95.605,62.118,93.405,62.118,89.74L62.118,82.042L51.707,71.631L51.707,89.74C51.707,93.259,53.467,95.605,56.839,95.605ZM56.839,95.605"/>
  <path stroke-opacity="1" stroke-miterlimit="4" stroke-linejoin="miter" fill-opacity="1" fill="#000000" stroke-linecap="butt" stroke-dasharray="none" stroke-width="1px" fill-rule="nonzero" stroke="none" d="M128.906,136.514C130.887,138.494,134.112,138.494,136.019,136.514C137.924,134.535,137.998,131.382,136.019,129.403L8.818,2.129C6.839,0.15,3.539,0.15,1.56,2.129C-0.346,4.035,-0.346,7.334,1.56,9.241L128.906,136.514ZM128.906,136.514"/>
</g>
  <g id="Bold-L" transform="matrix(1.0,0.0,0.0,1.0,2272.1921051600493,1451.7021246912993)">  <path stroke-width="1px" stroke-miterlimit="4" stroke-linejoin="miter" stroke-linecap="butt" stroke-opacity="1" fill-opacity="1" fill-rule="nonzero" stroke="none" stroke-dasharray="none" fill="#000000" d="M68.496,125.81C79.126,125.81,89.171,122.731,97.748,117.526L89.684,109.461C83.379,112.76,76.194,114.666,68.496,114.666C43.276,114.666,23.114,94.505,23.114,69.212C23.114,61.514,24.947,54.329,28.32,48.097L20.109,39.886C14.977,48.537,11.897,58.581,11.897,69.212C11.897,100.15,37.557,125.81,68.496,125.81ZM68.423,23.757C93.643,23.757,113.877,43.918,113.951,69.212C113.951,76.763,112.118,83.874,108.892,90.106L116.957,98.171C122.089,89.74,125.094,79.769,125.094,69.212C125.094,38.273,99.434,12.613,68.423,12.613C57.939,12.613,47.968,15.619,39.537,20.678L47.601,28.889C53.833,25.59,60.871,23.757,68.423,23.757ZM89.317,70.531C91.15,67.745,92.25,64.3,92.25,60.341C92.25,49.49,84.478,42.159,72.895,42.159L61.165,42.159L69.009,50.077L71.209,50.077C77.953,50.077,81.912,53.889,81.912,60.341C81.912,61.22,81.766,62.027,81.472,62.687L89.317,70.531ZM56.839,95.605C60.285,95.605,62.118,93.405,62.118,89.74L62.118,82.042L51.707,71.631L51.707,89.74C51.707,93.259,53.467,95.605,56.839,95.605ZM56.839,95.605"/>
  <path stroke-linejoin="miter" fill="#000000" stroke-dasharray="none" fill-opacity="1" fill-rule="nonzero" stroke="none" stroke-width="1px" stroke-linecap="butt" stroke-miterlimit="4" stroke-opacity="1" d="M128.906,136.514C130.887,138.494,134.112,138.494,136.019,136.514C137.924,134.535,137.998,131.382,136.019,129.403L8.818,2.129C6.839,0.15,3.539,0.15,1.56,2.129C-0.346,4.035,-0.346,7.334,1.56,9.241L128.906,136.514ZM128.906,136.514"/>
</g>
  <g id="Semibold-L" transform="matrix(1.0,0.0,0.0,1.0,1975.4821051600493,1451.7021246912993)">  <path stroke-dasharray="none" stroke-miterlimit="4" fill="#000000" stroke="none" stroke-linejoin="miter" fill-opacity="1" stroke-linecap="butt" stroke-opacity="1" fill-rule="nonzero" stroke-width="1px" d="M68.496,125.81C79.126,125.81,89.171,122.731,97.748,117.526L89.684,109.461C83.379,112.76,76.194,114.666,68.496,114.666C43.276,114.666,23.114,94.505,23.114,69.212C23.114,61.514,24.947,54.329,28.32,48.097L20.109,39.886C14.977,48.537,11.897,58.581,11.897,69.212C11.897,100.15,37.557,125.81,68.496,125.81ZM68.423,23.757C93.643,23.757,113.877,43.918,113.951,69.212C113.951,76.763,112.118,83.874,108.892,90.106L116.957,98.171C122.089,89.74,125.094,79.769,125.094,69.212C125.094,38.273,99.434,12.613,68.423,12.613C57.939,12.613,47.968,15.619,39.537,20.678L47.601,28.889C53.833,25.59,60.871,23.757,68.423,23.757ZM89.317,70.531C91.15,67.745,92.25,64.3,92.25,60.341C92.25,49.49,84.478,42.159,72.895,42.159L61.165,42.159L69.009,50.077L71.209,50.077C77.953,50.077,81.912,53.889,81.912,60.341C81.912,61.22,81.766,62.027,81.472,62.687L89.317,70.531ZM56.839,95.605C60.285,95.605,62.118,93.405,62.118,89.74L62.118,82.042L51.707,71.631L51.707,89.74C51.707,93.259,53.467,95.605,56.839,95.605ZM56.839,95.605"/>
  <path stroke-opacity="1" fill-rule="nonzero" stroke-width="1px" stroke-linecap="butt" stroke-dasharray="none" stroke="none" stroke-miterlimit="4" stroke-linejoin="miter" fill="#000000" fill-opacity="1" d="M128.906,136.514C130.887,138.494,134.112,138.494,136.019,136.514C137.924,134.535,137.998,131.382,136.019,129.403L8.818,2.129C6.839,0.15,3.539,0.15,1.56,2.129C-0.346,4.035,-0.346,7.334,1.56,9.241L128.906,136.514ZM128.906,136.514"/>
</g>
  <g id="Medium-L" transform="matrix(1.0,0.0,0.0,1.0,1678.7721051600493,1451.7021246912993)">  <path stroke-miterlimit="4" fill-opacity="1" stroke-linejoin="miter" fill-rule="nonzero" fill="#000000" stroke-dasharray="none" stroke-linecap="butt" stroke-opacity="1" stroke-width="1px" stroke="none" d="M68.496,125.81C79.126,125.81,89.171,122.731,97.748,117.526L89.684,109.461C83.379,112.76,76.194,114.666,68.496,114.666C43.276,114.666,23.114,94.505,23.114,69.212C23.114,61.514,24.947,54.329,28.32,48.097L20.109,39.886C14.977,48.537,11.897,58.581,11.897,69.212C11.897,100.15,37.557,125.81,68.496,125.81ZM68.423,23.757C93.643,23.757,113.877,43.918,113.951,69.212C113.951,76.763,112.118,83.874,108.892,90.106L116.957,98.171C122.089,89.74,125.094,79.769,125.094,69.212C125.094,38.273,99.434,12.613,68.423,12.613C57.939,12.613,47.968,15.619,39.537,20.678L47.601,28.889C53.833,25.59,60.871,23.757,68.423,23.757ZM89.317,70.531C91.15,67.745,92.25,64.3,92.25,60.341C92.25,49.49,84.478,42.159,72.895,42.159L61.165,42.159L69.009,50.077L71.209,50.077C77.953,50.077,81.912,53.889,81.912,60.341C81.912,61.22,81.766,62.027,81.472,62.687L89.317,70.531ZM56.839,95.605C60.285,95.605,62.118,93.405,62.118,89.74L62.118,82.042L51.707,71.631L51.707,89.74C51.707,93.259,53.467,95.605,56.839,95.605ZM56.839,95.605"/>
  <path stroke-miterlimit="4" fill="#000000" fill-opacity="1" fill-rule="nonzero" stroke="none" stroke-linecap="butt" stroke-dasharray="none" stroke-linejoin="miter" stroke-opacity="1" stroke-width="1px" d="M128.906,136.514C130.887,138.494,134.112,138.494,136.019,136.514C137.924,134.535,137.998,131.382,136.019,129.403L8.818,2.129C6.839,0.15,3.539,0.15,1.56,2.129C-0.346,4.035,-0.346,7.334,1.56,9.241L128.906,136.514ZM128.906,136.514"/>
</g>
  <g id="Regular-L" transform="matrix(1.0,0.0,0.0,1.0,1382.0621051600492,1451.7021246912993)">  <path stroke-miterlimit="4" stroke-dasharray="none" stroke-linejoin="miter" fill-rule="nonzero" stroke-width="1px" fill="#000000" stroke-opacity="1" stroke-linecap="butt" stroke="none" fill-opacity="1" d="M68.496,125.81C79.126,125.81,89.171,122.731,97.748,117.526L89.684,109.461C83.379,112.76,76.194,114.666,68.496,114.666C43.276,114.666,23.114,94.505,23.114,69.212C23.114,61.514,24.947,54.329,28.32,48.097L20.109,39.886C14.977,48.537,11.897,58.581,11.897,69.212C11.897,100.15,37.557,125.81,68.496,125.81ZM68.423,23.757C93.643,23.757,113.877,43.918,113.951,69.212C113.951,76.763,112.118,83.874,108.892,90.106L116.957,98.171C122.089,89.74,125.094,79.769,125.094,69.212C125.094,38.273,99.434,12.613,68.423,12.613C57.939,12.613,47.968,15.619,39.537,20.678L47.601,28.889C53.833,25.59,60.871,23.757,68.423,23.757ZM89.317,70.531C91.15,67.745,92.25,64.3,92.25,60.341C92.25,49.49,84.478,42.159,72.895,42.159L61.165,42.159L69.009,50.077L71.209,50.077C77.953,50.077,81.912,53.889,81.912,60.341C81.912,61.22,81.766,62.027,81.472,62.687L89.317,70.531ZM56.839,95.605C60.285,95.605,62.118,93.405,62.118,89.74L62.118,82.042L51.707,71.631L51.707,89.74C51.707,93.259,53.467,95.605,56.839,95.605ZM56.839,95.605"/>
  <path stroke="none" stroke-width="1px" stroke-miterlimit="4" stroke-linecap="butt" stroke-opacity="1" fill-opacity="1" stroke-linejoin="miter" stroke-dasharray="none" fill="#000000" fill-rule="nonzero" d="M128.906,136.514C130.887,138.494,134.112,138.494,136.019,136.514C137.924,134.535,137.998,131.382,136.019,129.403L8.818,2.129C6.839,0.15,3.539,0.15,1.56,2.129C-0.346,4.035,-0.346,7.334,1.56,9.241L128.906,136.514ZM128.906,136.514"/>
</g>
  <g id="Light-L" transform="matrix(1.0,0.0,0.0,1.0,1085.3521051600494,1451.7021246912993)">  <path stroke-linejoin="miter" fill-opacity="1" stroke-opacity="1" stroke-dasharray="none" stroke-miterlimit="4" fill-rule="nonzero" fill="#000000" stroke="none" stroke-linecap="butt" stroke-width="1px" d="M68.496,125.81C79.126,125.81,89.171,122.731,97.748,117.526L89.684,109.461C83.379,112.76,76.194,114.666,68.496,114.666C43.276,114.666,23.114,94.505,23.114,69.212C23.114,61.514,24.947,54.329,28.32,48.097L20.109,39.886C14.977,48.537,11.897,58.581,11.897,69.212C11.897,100.15,37.557,125.81,68.496,125.81ZM68.423,23.757C93.643,23.757,113.877,43.918,113.951,69.212C113.951,76.763,112.118,83.874,108.892,90.106L116.957,98.171C122.089,89.74,125.094,79.769,125.094,69.212C125.094,38.273,99.434,12.613,68.423,12.613C57.939,12.613,47.968,15.619,39.537,20.678L47.601,28.889C53.833,25.59,60.871,23.757,68.423,23.757ZM89.317,70.531C91.15,67.745,92.25,64.3,92.25,60.341C92.25,49.49,84.478,42.159,72.895,42.159L61.165,42.159L69.009,50.077L71.209,50.077C77.953,50.077,81.912,53.889,81.912,60.341C81.912,61.22,81.766,62.027,81.472,62.687L89.317,70.531ZM56.839,95.605C60.285,95.605,62.118,93.405,62.118,89.74L62.118,82.042L51.707,71.631L51.707,89.74C51.707,93.259,53.467,95.605,56.839,95.605ZM56.839,95.605"/>
  <path stroke-width="1px" stroke-linecap="butt" stroke-linejoin="miter" stroke-miterlimit="4" fill-opacity="1" fill="#000000" stroke="none" stroke-dasharray="none" stroke-opacity="1" fill-rule="nonzero" d="M128.906,136.514C130.887,138.494,134.112,138.494,136.019,136.514C137.924,134.535,137.998,131.382,136.019,129.403L8.818,2.129C6.839,0.15,3.539,0.15,1.56,2.129C-0.346,4.035,-0.346,7.334,1.56,9.241L128.906,136.514ZM128.906,136.514"/>
</g>
  <g id="Thin-L" transform="matrix(1.0,0.0,0.0,1.0,788.6421051600494,1451.7021246912993)">  <path fill="#000000" stroke="none" stroke-linejoin="miter" stroke-linecap="butt" stroke-miterlimit="4" stroke-width="1px" fill-opacity="1" stroke-dasharray="none" fill-rule="nonzero" stroke-opacity="1" d="M68.496,125.81C79.126,125.81,89.171,122.731,97.748,117.526L89.684,109.461C83.379,112.76,76.194,114.666,68.496,114.666C43.276,114.666,23.114,94.505,23.114,69.212C23.114,61.514,24.947,54.329,28.32,48.097L20.109,39.886C14.977,48.537,11.897,58.581,11.897,69.212C11.897,100.15,37.557,125.81,68.496,125.81ZM68.423,23.757C93.643,23.757,113.877,43.918,113.951,69.212C113.951,76.763,112.118,83.874,108.892,90.106L116.957,98.171C122.089,89.74,125.094,79.769,125.094,69.212C125.094,38.273,99.434,12.613,68.423,12.613C57.939,12.613,47.968,15.619,39.537,20.678L47.601,28.889C53.833,25.59,60.871,23.757,68.423,23.757ZM89.317,70.531C91.15,67.745,92.25,64.3,92.25,60.341C92.25,49.49,84.478,42.159,72.895,42.159L61.165,42.159L69.009,50.077L71.209,50.077C77.953,50.077,81.912,53.889,81.912,60.341C81.912,61.22,81.766,62.027,81.472,62.687L89.317,70.531ZM56.839,95.605C60.285,95.605,62.118,93.405,62.118,89.74L62.118,82.042L51.707,71.631L51.707,89.74C51.707,93.259,53.467,95.605,56.839,95.605ZM56.839,95.605"/>
  <path stroke="none" stroke-dasharray="none" fill="#000000" stroke-width="1px" stroke-miterlimit="4" stroke-linecap="butt" stroke-opacity="1" fill-rule="nonzero" stroke-linejoin="miter" fill-opacity="1" d="M128.906,136.514C130.887,138.494,134.112,138.494,136.019,136.514C137.924,134.535,137.998,131.382,136.019,129.403L8.818,2.129C6.839,0.15,3.539,0.15,1.56,2.129C-0.346,4.035,-0.346,7.334,1.56,9.241L128.906,136.514ZM128.906,136.514"/>
</g>
  <g id="Ultralight-L" transform="matrix(1.0,0.0,0.0,1.0,491.9321051600494,1451.7021246912993)">  <path fill-rule="nonzero" stroke-opacity="1" stroke-width="1px" fill="#000000" stroke-linecap="butt" stroke="none" stroke-miterlimit="4" stroke-dasharray="none" fill-opacity="1" stroke-linejoin="miter" d="M68.496,125.81C79.126,125.81,89.171,122.731,97.748,117.526L89.684,109.461C83.379,112.76,76.194,114.666,68.496,114.666C43.276,114.666,23.114,94.505,23.114,69.212C23.114,61.514,24.947,54.329,28.32,48.097L20.109,39.886C14.977,48.537,11.897,58.581,11.897,69.212C11.897,100.15,37.557,125.81,68.496,125.81ZM68.423,23.757C93.643,23.757,113.877,43.918,113.951,69.212C113.951,76.763,112.118,83.874,108.892,90.106L116.957,98.171C122.089,89.74,125.094,79.769,125.094,69.212C125.094,38.273,99.434,12.613,68.423,12.613C57.939,12.613,47.968,15.619,39.537,20.678L47.601,28.889C53.833,25.59,60.871,23.757,68.423,23.757ZM89.317,70.531C91.15,67.745,92.25,64.3,92.25,60.341C92.25,49.49,84.478,42.159,72.895,42.159L61.165,42.159L69.009,50.077L71.209,50.077C77.953,50.077,81.912,53.889,81.912,60.341C81.912,61.22,81.766,62.027,81.472,62.687L89.317,70.531ZM56.839,95.605C60.285,95.605,62.118,93.405,62.118,89.74L62.118,82.042L51.707,71.631L51.707,89.74C51.707,93.259,53.467,95.605,56.839,95.605ZM56.839,95.605"/>
  <path stroke-linejoin="miter" fill-opacity="1" stroke-opacity="1" fill-rule="nonzero" stroke-dasharray="none" stroke-width="1px" stroke="none" stroke-miterlimit="4" fill="#000000" stroke-linecap="butt" d="M128.906,136.514C130.887,138.494,134.112,138.494,136.019,136.514C137.924,134.535,137.998,131.382,136.019,129.403L8.818,2.129C6.839,0.15,3.539,0.15,1.56,2.129C-0.346,4.035,-0.346,7.334,1.56,9.241L128.906,136.514ZM128.906,136.514"/>
</g>
  <g id="Black-M" transform="matrix(1.0,0.0,0.0,1.0,2881.1389962481003,1037.2290157793502)">  <path stroke="none" fill="#000000" stroke-miterlimit="4" stroke-dasharray="none" stroke-opacity="1" stroke-width="1px" fill-opacity="1" stroke-linecap="butt" fill-rule="nonzero" stroke-linejoin="miter" d="M53.098,97.527C61.338,97.527,69.124,95.14,75.774,91.105L69.522,84.854C64.635,87.411,59.065,88.889,53.098,88.889C33.547,88.889,17.918,73.26,17.918,53.652C17.918,47.685,19.339,42.115,21.953,37.285L15.588,30.919C11.61,37.626,9.223,45.412,9.223,53.652C9.223,77.636,29.114,97.527,53.098,97.527ZM53.041,18.416C72.591,18.416,88.277,34.045,88.334,53.652C88.334,59.506,86.913,65.019,84.413,69.85L90.664,76.101C94.642,69.566,96.972,61.836,96.972,53.652C96.972,29.669,77.081,9.778,53.041,9.778C44.914,9.778,37.184,12.108,30.649,16.029L36.9,22.394C41.731,19.837,47.187,18.416,53.041,18.416ZM69.238,54.675C70.659,52.516,71.511,49.845,71.511,46.776C71.511,38.364,65.487,32.681,56.508,32.681L47.414,32.681L53.495,38.819L55.2,38.819C60.429,38.819,63.498,41.774,63.498,46.776C63.498,47.458,63.384,48.083,63.157,48.594L69.238,54.675ZM44.061,74.112C46.732,74.112,48.153,72.407,48.153,69.566L48.153,63.598L40.083,55.528L40.083,69.566C40.083,72.294,41.447,74.112,44.061,74.112ZM44.061,74.112"/>
  <path stroke-miterlimit="4" fill="#000000" stroke-opacity="1" stroke="none" stroke-width="1px" fill-rule="nonzero" stroke-dasharray="none" stroke-linecap="butt" fill-opacity="1" stroke-linejoin="miter" d="M99.927,105.825C101.463,107.359,103.963,107.359,105.441,105.825C106.918,104.29,106.975,101.847,105.441,100.312L6.836,1.65C5.301,0.116,2.744,0.116,1.209,1.65C-0.268,3.128,-0.268,5.686,1.209,7.163L99.927,105.825ZM99.927,105.825"/>
</g>
  <g id="Heavy-M" transform="matrix(1.0,0.0,0.0,1.0,2584.4289962481002,1037.2290157793502)">  <path stroke-dasharray="none" stroke-miterlimit="4" stroke-linecap="butt" stroke-linejoin="miter" fill-opacity="1" stroke-width="1px" stroke-opacity="1" fill="#000000" fill-rule="nonzero" stroke="none" d="M53.098,97.527C61.338,97.527,69.124,95.14,75.774,91.105L69.522,84.854C64.635,87.411,59.065,88.889,53.098,88.889C33.547,88.889,17.918,73.26,17.918,53.652C17.918,47.685,19.339,42.115,21.953,37.285L15.588,30.919C11.61,37.626,9.223,45.412,9.223,53.652C9.223,77.636,29.114,97.527,53.098,97.527ZM53.041,18.416C72.591,18.416,88.277,34.045,88.334,53.652C88.334,59.506,86.913,65.019,84.413,69.85L90.664,76.101C94.642,69.566,96.972,61.836,96.972,53.652C96.972,29.669,77.081,9.778,53.041,9.778C44.914,9.778,37.184,12.108,30.649,16.029L36.9,22.394C41.731,19.837,47.187,18.416,53.041,18.416ZM69.238,54.675C70.659,52.516,71.511,49.845,71.511,46.776C71.511,38.364,65.487,32.681,56.508,32.681L47.414,32.681L53.495,38.819L55.2,38.819C60.429,38.819,63.498,41.774,63.498,46.776C63.498,47.458,63.384,48.083,63.157,48.594L69.238,54.675ZM44.061,74.112C46.732,74.112,48.153,72.407,48.153,69.566L48.153,63.598L40.083,55.528L40.083,69.566C40.083,72.294,41.447,74.112,44.061,74.112ZM44.061,74.112"/>
  <path stroke-opacity="1" stroke-miterlimit="4" stroke-linejoin="miter" fill-opacity="1" fill="#000000" stroke-linecap="butt" stroke-dasharray="none" stroke-width="1px" fill-rule="nonzero" stroke="none" d="M99.927,105.825C101.463,107.359,103.963,107.359,105.441,105.825C106.918,104.29,106.975,101.847,105.441,100.312L6.836,1.65C5.301,0.116,2.744,0.116,1.209,1.65C-0.268,3.128,-0.268,5.686,1.209,7.163L99.927,105.825ZM99.927,105.825"/>
</g>
  <g id="Bold-M" transform="matrix(1.0,0.0,0.0,1.0,2287.7189962481,1037.2290157793502)">  <path stroke-width="1px" stroke-miterlimit="4" stroke-linejoin="miter" stroke-linecap="butt" stroke-opacity="1" fill-opacity="1" fill-rule="nonzero" stroke="none" stroke-dasharray="none" fill="#000000" d="M53.098,97.527C61.338,97.527,69.124,95.14,75.774,91.105L69.522,84.854C64.635,87.411,59.065,88.889,53.098,88.889C33.547,88.889,17.918,73.26,17.918,53.652C17.918,47.685,19.339,42.115,21.953,37.285L15.588,30.919C11.61,37.626,9.223,45.412,9.223,53.652C9.223,77.636,29.114,97.527,53.098,97.527ZM53.041,18.416C72.591,18.416,88.277,34.045,88.334,53.652C88.334,59.506,86.913,65.019,84.413,69.85L90.664,76.101C94.642,69.566,96.972,61.836,96.972,53.652C96.972,29.669,77.081,9.778,53.041,9.778C44.914,9.778,37.184,12.108,30.649,16.029L36.9,22.394C41.731,19.837,47.187,18.416,53.041,18.416ZM69.238,54.675C70.659,52.516,71.511,49.845,71.511,46.776C71.511,38.364,65.487,32.681,56.508,32.681L47.414,32.681L53.495,38.819L55.2,38.819C60.429,38.819,63.498,41.774,63.498,46.776C63.498,47.458,63.384,48.083,63.157,48.594L69.238,54.675ZM44.061,74.112C46.732,74.112,48.153,72.407,48.153,69.566L48.153,63.598L40.083,55.528L40.083,69.566C40.083,72.294,41.447,74.112,44.061,74.112ZM44.061,74.112"/>
  <path stroke-linejoin="miter" fill="#000000" stroke-dasharray="none" fill-opacity="1" fill-rule="nonzero" stroke="none" stroke-width="1px" stroke-linecap="butt" stroke-miterlimit="4" stroke-opacity="1" d="M99.927,105.825C101.463,107.359,103.963,107.359,105.441,105.825C106.918,104.29,106.975,101.847,105.441,100.312L6.836,1.65C5.301,0.116,2.744,0.116,1.209,1.65C-0.268,3.128,-0.268,5.686,1.209,7.163L99.927,105.825ZM99.927,105.825"/>
</g>
  <g id="Semibold-M" transform="matrix(1.0,0.0,0.0,1.0,1991.0089962481002,1037.2290157793502)">  <path stroke-dasharray="none" stroke-miterlimit="4" fill="#000000" stroke="none" stroke-linejoin="miter" fill-opacity="1" stroke-linecap="butt" stroke-opacity="1" fill-rule="nonzero" stroke-width="1px" d="M53.098,97.527C61.338,97.527,69.124,95.14,75.774,91.105L69.522,84.854C64.635,87.411,59.065,88.889,53.098,88.889C33.547,88.889,17.918,73.26,17.918,53.652C17.918,47.685,19.339,42.115,21.953,37.285L15.588,30.919C11.61,37.626,9.223,45.412,9.223,53.652C9.223,77.636,29.114,97.527,53.098,97.527ZM53.041,18.416C72.591,18.416,88.277,34.045,88.334,53.652C88.334,59.506,86.913,65.019,84.413,69.85L90.664,76.101C94.642,69.566,96.972,61.836,96.972,53.652C96.972,29.669,77.081,9.778,53.041,9.778C44.914,9.778,37.184,12.108,30.649,16.029L36.9,22.394C41.731,19.837,47.187,18.416,53.041,18.416ZM69.238,54.675C70.659,52.516,71.511,49.845,71.511,46.776C71.511,38.364,65.487,32.681,56.508,32.681L47.414,32.681L53.495,38.819L55.2,38.819C60.429,38.819,63.498,41.774,63.498,46.776C63.498,47.458,63.384,48.083,63.157,48.594L69.238,54.675ZM44.061,74.112C46.732,74.112,48.153,72.407,48.153,69.566L48.153,63.598L40.083,55.528L40.083,69.566C40.083,72.294,41.447,74.112,44.061,74.112ZM44.061,74.112"/>
  <path stroke-opacity="1" fill-rule="nonzero" stroke-width="1px" stroke-linecap="butt" stroke-dasharray="none" stroke="none" stroke-miterlimit="4" stroke-linejoin="miter" fill="#000000" fill-opacity="1" d="M99.927,105.825C101.463,107.359,103.963,107.359,105.441,105.825C106.918,104.29,106.975,101.847,105.441,100.312L6.836,1.65C5.301,0.116,2.744,0.116,1.209,1.65C-0.268,3.128,-0.268,5.686,1.209,7.163L99.927,105.825ZM99.927,105.825"/>
</g>
  <g id="Medium-M" transform="matrix(1.0,0.0,0.0,1.0,1694.2989962481001,1037.2290157793502)">  <path stroke-miterlimit="4" fill-opacity="1" stroke-linejoin="miter" fill-rule="nonzero" fill="#000000" stroke-dasharray="none" stroke-linecap="butt" stroke-opacity="1" stroke-width="1px" stroke="none" d="M53.098,97.527C61.338,97.527,69.124,95.14,75.774,91.105L69.522,84.854C64.635,87.411,59.065,88.889,53.098,88.889C33.547,88.889,17.918,73.26,17.918,53.652C17.918,47.685,19.339,42.115,21.953,37.285L15.588,30.919C11.61,37.626,9.223,45.412,9.223,53.652C9.223,77.636,29.114,97.527,53.098,97.527ZM53.041,18.416C72.591,18.416,88.277,34.045,88.334,53.652C88.334,59.506,86.913,65.019,84.413,69.85L90.664,76.101C94.642,69.566,96.972,61.836,96.972,53.652C96.972,29.669,77.081,9.778,53.041,9.778C44.914,9.778,37.184,12.108,30.649,16.029L36.9,22.394C41.731,19.837,47.187,18.416,53.041,18.416ZM69.238,54.675C70.659,52.516,71.511,49.845,71.511,46.776C71.511,38.364,65.487,32.681,56.508,32.681L47.414,32.681L53.495,38.819L55.2,38.819C60.429,38.819,63.498,41.774,63.498,46.776C63.498,47.458,63.384,48.083,63.157,48.594L69.238,54.675ZM44.061,74.112C46.732,74.112,48.153,72.407,48.153,69.566L48.153,63.598L40.083,55.528L40.083,69.566C40.083,72.294,41.447,74.112,44.061,74.112ZM44.061,74.112"/>
  <path stroke-miterlimit="4" fill="#000000" fill-opacity="1" fill-rule="nonzero" stroke="none" stroke-linecap="butt" stroke-dasharray="none" stroke-linejoin="miter" stroke-opacity="1" stroke-width="1px" d="M99.927,105.825C101.463,107.359,103.963,107.359,105.441,105.825C106.918,104.29,106.975,101.847,105.441,100.312L6.836,1.65C5.301,0.116,2.744,0.116,1.209,1.65C-0.268,3.128,-0.268,5.686,1.209,7.163L99.927,105.825ZM99.927,105.825"/>
</g>
  <g id="Regular-M" transform="matrix(1.0,0.0,0.0,1.0,1397.5889962481,1037.2290157793502)">  <path stroke-miterlimit="4" stroke-dasharray="none" stroke-linejoin="miter" fill-rule="nonzero" stroke-width="1px" fill="#000000" stroke-opacity="1" stroke-linecap="butt" stroke="none" fill-opacity="1" d="M53.098,97.527C61.338,97.527,69.124,95.14,75.774,91.105L69.522,84.854C64.635,87.411,59.065,88.889,53.098,88.889C33.547,88.889,17.918,73.26,17.918,53.652C17.918,47.685,19.339,42.115,21.953,37.285L15.588,30.919C11.61,37.626,9.223,45.412,9.223,53.652C9.223,77.636,29.114,97.527,53.098,97.527ZM53.041,18.416C72.591,18.416,88.277,34.045,88.334,53.652C88.334,59.506,86.913,65.019,84.413,69.85L90.664,76.101C94.642,69.566,96.972,61.836,96.972,53.652C96.972,29.669,77.081,9.778,53.041,9.778C44.914,9.778,37.184,12.108,30.649,16.029L36.9,22.394C41.731,19.837,47.187,18.416,53.041,18.416ZM69.238,54.675C70.659,52.516,71.511,49.845,71.511,46.776C71.511,38.364,65.487,32.681,56.508,32.681L47.414,32.681L53.495,38.819L55.2,38.819C60.429,38.819,63.498,41.774,63.498,46.776C63.498,47.458,63.384,48.083,63.157,48.594L69.238,54.675ZM44.061,74.112C46.732,74.112,48.153,72.407,48.153,69.566L48.153,63.598L40.083,55.528L40.083,69.566C40.083,72.294,41.447,74.112,44.061,74.112ZM44.061,74.112"/>
  <path stroke="none" stroke-width="1px" stroke-miterlimit="4" stroke-linecap="butt" stroke-opacity="1" fill-opacity="1" stroke-linejoin="miter" stroke-dasharray="none" fill="#000000" fill-rule="nonzero" d="M99.927,105.825C101.463,107.359,103.963,107.359,105.441,105.825C106.918,104.29,106.975,101.847,105.441,100.312L6.836,1.65C5.301,0.116,2.744,0.116,1.209,1.65C-0.268,3.128,-0.268,5.686,1.209,7.163L99.927,105.825ZM99.927,105.825"/>
</g>
  <g id="Light-M" transform="matrix(1.0,0.0,0.0,1.0,1100.8789962481003,1037.2290157793502)">  <path stroke-linejoin="miter" fill-opacity="1" stroke-opacity="1" stroke-dasharray="none" stroke-miterlimit="4" fill-rule="nonzero" fill="#000000" stroke="none" stroke-linecap="butt" stroke-width="1px" d="M53.098,97.527C61.338,97.527,69.124,95.14,75.774,91.105L69.522,84.854C64.635,87.411,59.065,88.889,53.098,88.889C33.547,88.889,17.918,73.26,17.918,53.652C17.918,47.685,19.339,42.115,21.953,37.285L15.588,30.919C11.61,37.626,9.223,45.412,9.223,53.652C9.223,77.636,29.114,97.527,53.098,97.527ZM53.041,18.416C72.591,18.416,88.277,34.045,88.334,53.652C88.334,59.506,86.913,65.019,84.413,69.85L90.664,76.101C94.642,69.566,96.972,61.836,96.972,53.652C96.972,29.669,77.081,9.778,53.041,9.778C44.914,9.778,37.184,12.108,30.649,16.029L36.9,22.394C41.731,19.837,47.187,18.416,53.041,18.416ZM69.238,54.675C70.659,52.516,71.511,49.845,71.511,46.776C71.511,38.364,65.487,32.681,56.508,32.681L47.414,32.681L53.495,38.819L55.2,38.819C60.429,38.819,63.498,41.774,63.498,46.776C63.498,47.458,63.384,48.083,63.157,48.594L69.238,54.675ZM44.061,74.112C46.732,74.112,48.153,72.407,48.153,69.566L48.153,63.598L40.083,55.528L40.083,69.566C40.083,72.294,41.447,74.112,44.061,74.112ZM44.061,74.112"/>
  <path stroke-width="1px" stroke-linecap="butt" stroke-linejoin="miter" stroke-miterlimit="4" fill-opacity="1" fill="#000000" stroke="none" stroke-dasharray="none" stroke-opacity="1" fill-rule="nonzero" d="M99.927,105.825C101.463,107.359,103.963,107.359,105.441,105.825C106.918,104.29,106.975,101.847,105.441,100.312L6.836,1.65C5.301,0.116,2.744,0.116,1.209,1.65C-0.268,3.128,-0.268,5.686,1.209,7.163L99.927,105.825ZM99.927,105.825"/>
</g>
  <g id="Thin-M" transform="matrix(1.0,0.0,0.0,1.0,804.1689962481004,1037.2290157793502)">  <path fill="#000000" stroke="none" stroke-linejoin="miter" stroke-linecap="butt" stroke-miterlimit="4" stroke-width="1px" fill-opacity="1" stroke-dasharray="none" fill-rule="nonzero" stroke-opacity="1" d="M53.098,97.527C61.338,97.527,69.124,95.14,75.774,91.105L69.522,84.854C64.635,87.411,59.065,88.889,53.098,88.889C33.547,88.889,17.918,73.26,17.918,53.652C17.918,47.685,19.339,42.115,21.953,37.285L15.588,30.919C11.61,37.626,9.223,45.412,9.223,53.652C9.223,77.636,29.114,97.527,53.098,97.527ZM53.041,18.416C72.591,18.416,88.277,34.045,88.334,53.652C88.334,59.506,86.913,65.019,84.413,69.85L90.664,76.101C94.642,69.566,96.972,61.836,96.972,53.652C96.972,29.669,77.081,9.778,53.041,9.778C44.914,9.778,37.184,12.108,30.649,16.029L36.9,22.394C41.731,19.837,47.187,18.416,53.041,18.416ZM69.238,54.675C70.659,52.516,71.511,49.845,71.511,46.776C71.511,38.364,65.487,32.681,56.508,32.681L47.414,32.681L53.495,38.819L55.2,38.819C60.429,38.819,63.498,41.774,63.498,46.776C63.498,47.458,63.384,48.083,63.157,48.594L69.238,54.675ZM44.061,74.112C46.732,74.112,48.153,72.407,48.153,69.566L48.153,63.598L40.083,55.528L40.083,69.566C40.083,72.294,41.447,74.112,44.061,74.112ZM44.061,74.112"/>
  <path stroke="none" stroke-dasharray="none" fill="#000000" stroke-width="1px" stroke-miterlimit="4" stroke-linecap="butt" stroke-opacity="1" fill-rule="nonzero" stroke-linejoin="miter" fill-opacity="1" d="M99.927,105.825C101.463,107.359,103.963,107.359,105.441,105.825C106.918,104.29,106.975,101.847,105.441,100.312L6.836,1.65C5.301,0.116,2.744,0.116,1.209,1.65C-0.268,3.128,-0.268,5.686,1.209,7.163L99.927,105.825ZM99.927,105.825"/>
</g>
  <g id="Ultralight-M" transform="matrix(1.0,0.0,0.0,1.0,507.4589962481003,1037.2290157793502)">  <path fill-rule="nonzero" stroke-opacity="1" stroke-width="1px" fill="#000000" stroke-linecap="butt" stroke="none" stroke-miterlimit="4" stroke-dasharray="none" fill-opacity="1" stroke-linejoin="miter" d="M53.098,97.527C61.338,97.527,69.124,95.14,75.774,91.105L69.522,84.854C64.635,87.411,59.065,88.889,53.098,88.889C33.547,88.889,17.918,73.26,17.918,53.652C17.918,47.685,19.339,42.115,21.953,37.285L15.588,30.919C11.61,37.626,9.223,45.412,9.223,53.652C9.223,77.636,29.114,97.527,53.098,97.527ZM53.041,18.416C72.591,18.416,88.277,34.045,88.334,53.652C88.334,59.506,86.913,65.019,84.413,69.85L90.664,76.101C94.642,69.566,96.972,61.836,96.972,53.652C96.972,29.669,77.081,9.778,53.041,9.778C44.914,9.778,37.184,12.108,30.649,16.029L36.9,22.394C41.731,19.837,47.187,18.416,53.041,18.416ZM69.238,54.675C70.659,52.516,71.511,49.845,71.511,46.776C71.511,38.364,65.487,32.681,56.508,32.681L47.414,32.681L53.495,38.819L55.2,38.819C60.429,38.819,63.498,41.774,63.498,46.776C63.498,47.458,63.384,48.083,63.157,48.594L69.238,54.675ZM44.061,74.112C46.732,74.112,48.153,72.407,48.153,69.566L48.153,63.598L40.083,55.528L40.083,69.566C40.083,72.294,41.447,74.112,44.061,74.112ZM44.061,74.112"/>
  <path stroke-linejoin="miter" fill-opacity="1" stroke-opacity="1" fill-rule="nonzero" stroke-dasharray="none" stroke-width="1px" stroke="none" stroke-miterlimit="4" fill="#000000" stroke-linecap="butt" d="M99.927,105.825C101.463,107.359,103.963,107.359,105.441,105.825C106.918,104.29,106.975,101.847,105.441,100.312L6.836,1.65C5.301,0.116,2.744,0.116,1.209,1.65C-0.268,3.128,-0.268,5.686,1.209,7.163L99.927,105.825ZM99.927,105.825"/>
</g>
  <g id="Black-S" transform="matrix(1.0,0.0,0.0,1.0,2892.7573940622624,618.8474135935126)">  <path stroke="none" fill="#000000" stroke-miterlimit="4" stroke-dasharray="none" stroke-opacity="1" stroke-width="1px" fill-opacity="1" stroke-linecap="butt" fill-rule="nonzero" stroke-linejoin="miter" d="M41.575,76.364C48.028,76.364,54.124,74.495,59.331,71.335L54.436,66.44C50.609,68.443,46.248,69.6,41.575,69.6C26.267,69.6,14.03,57.362,14.03,42.01C14.03,37.337,15.142,32.976,17.189,29.194L12.205,24.21C9.09,29.461,7.221,35.557,7.221,42.01C7.221,60.789,22.796,76.364,41.575,76.364ZM41.531,14.42C56.839,14.42,69.121,26.657,69.165,42.01C69.165,46.593,68.053,50.91,66.095,54.692L70.99,59.587C74.105,54.47,75.929,48.418,75.929,42.01C75.929,23.231,60.354,7.656,41.531,7.656C35.167,7.656,29.115,9.48,23.998,12.551L28.893,17.535C32.675,15.532,36.947,14.42,41.531,14.42ZM54.213,42.811C55.326,41.12,55.993,39.028,55.993,36.625C55.993,30.039,51.276,25.589,44.245,25.589L37.125,25.589L41.887,30.395L43.222,30.395C47.316,30.395,49.719,32.709,49.719,36.625C49.719,37.159,49.63,37.649,49.452,38.049L54.213,42.811ZM34.5,58.03C36.591,58.03,37.704,56.695,37.704,54.47L37.704,49.797L31.385,43.478L31.385,54.47C31.385,56.606,32.453,58.03,34.5,58.03ZM34.5,58.03"/>
  <path stroke-miterlimit="4" fill="#000000" stroke-opacity="1" stroke="none" stroke-width="1px" fill-rule="nonzero" stroke-dasharray="none" stroke-linecap="butt" fill-opacity="1" stroke-linejoin="miter" d="M78.243,82.861C79.445,84.062,81.403,84.062,82.56,82.861C83.717,81.659,83.761,79.746,82.56,78.544L5.352,1.292C4.151,0.091,2.148,0.091,0.947,1.292C-0.21,2.449,-0.21,4.452,0.947,5.609L78.243,82.861ZM78.243,82.861"/>
</g>
  <g id="Heavy-S" transform="matrix(1.0,0.0,0.0,1.0,2596.0473940622624,618.8474135935126)">  <path stroke-dasharray="none" stroke-miterlimit="4" stroke-linecap="butt" stroke-linejoin="miter" fill-opacity="1" stroke-width="1px" stroke-opacity="1" fill="#000000" fill-rule="nonzero" stroke="none" d="M41.575,76.364C48.028,76.364,54.124,74.495,59.331,71.335L54.436,66.44C50.609,68.443,46.248,69.6,41.575,69.6C26.267,69.6,14.03,57.362,14.03,42.01C14.03,37.337,15.142,32.976,17.189,29.194L12.205,24.21C9.09,29.461,7.221,35.557,7.221,42.01C7.221,60.789,22.796,76.364,41.575,76.364ZM41.531,14.42C56.839,14.42,69.121,26.657,69.165,42.01C69.165,46.593,68.053,50.91,66.095,54.692L70.99,59.587C74.105,54.47,75.929,48.418,75.929,42.01C75.929,23.231,60.354,7.656,41.531,7.656C35.167,7.656,29.115,9.48,23.998,12.551L28.893,17.535C32.675,15.532,36.947,14.42,41.531,14.42ZM54.213,42.811C55.326,41.12,55.993,39.028,55.993,36.625C55.993,30.039,51.276,25.589,44.245,25.589L37.125,25.589L41.887,30.395L43.222,30.395C47.316,30.395,49.719,32.709,49.719,36.625C49.719,37.159,49.63,37.649,49.452,38.049L54.213,42.811ZM34.5,58.03C36.591,58.03,37.704,56.695,37.704,54.47L37.704,49.797L31.385,43.478L31.385,54.47C31.385,56.606,32.453,58.03,34.5,58.03ZM34.5,58.03"/>
  <path stroke-opacity="1" stroke-miterlimit="4" stroke-linejoin="miter" fill-opacity="1" fill="#000000" stroke-linecap="butt" stroke-dasharray="none" stroke-width="1px" fill-rule="nonzero" stroke="none" d="M78.243,82.861C79.445,84.062,81.403,84.062,82.56,82.861C83.717,81.659,83.761,79.746,82.56,78.544L5.352,1.292C4.151,0.091,2.148,0.091,0.947,1.292C-0.21,2.449,-0.21,4.452,0.947,5.609L78.243,82.861ZM78.243,82.861"/>
</g>
  <g id="Bold-S" transform="matrix(1.0,0.0,0.0,1.0,2299.3373940622623,618.8474135935126)">  <path stroke-width="1px" stroke-miterlimit="4" stroke-linejoin="miter" stroke-linecap="butt" stroke-opacity="1" fill-opacity="1" fill-rule="nonzero" stroke="none" stroke-dasharray="none" fill="#000000" d="M41.575,76.364C48.028,76.364,54.124,74.495,59.331,71.335L54.436,66.44C50.609,68.443,46.248,69.6,41.575,69.6C26.267,69.6,14.03,57.362,14.03,42.01C14.03,37.337,15.142,32.976,17.189,29.194L12.205,24.21C9.09,29.461,7.221,35.557,7.221,42.01C7.221,60.789,22.796,76.364,41.575,76.364ZM41.531,14.42C56.839,14.42,69.121,26.657,69.165,42.01C69.165,46.593,68.053,50.91,66.095,54.692L70.99,59.587C74.105,54.47,75.929,48.418,75.929,42.01C75.929,23.231,60.354,7.656,41.531,7.656C35.167,7.656,29.115,9.48,23.998,12.551L28.893,17.535C32.675,15.532,36.947,14.42,41.531,14.42ZM54.213,42.811C55.326,41.12,55.993,39.028,55.993,36.625C55.993,30.039,51.276,25.589,44.245,25.589L37.125,25.589L41.887,30.395L43.222,30.395C47.316,30.395,49.719,32.709,49.719,36.625C49.719,37.159,49.63,37.649,49.452,38.049L54.213,42.811ZM34.5,58.03C36.591,58.03,37.704,56.695,37.704,54.47L37.704,49.797L31.385,43.478L31.385,54.47C31.385,56.606,32.453,58.03,34.5,58.03ZM34.5,58.03"/>
  <path stroke-linejoin="miter" fill="#000000" stroke-dasharray="none" fill-opacity="1" fill-rule="nonzero" stroke="none" stroke-width="1px" stroke-linecap="butt" stroke-miterlimit="4" stroke-opacity="1" d="M78.243,82.861C79.445,84.062,81.403,84.062,82.56,82.861C83.717,81.659,83.761,79.746,82.56,78.544L5.352,1.292C4.151,0.091,2.148,0.091,0.947,1.292C-0.21,2.449,-0.21,4.452,0.947,5.609L78.243,82.861ZM78.243,82.861"/>
</g>
  <g id="Semibold-S" transform="matrix(1.0,0.0,0.0,1.0,2002.6273940622625,618.8474135935126)">  <path stroke-dasharray="none" stroke-miterlimit="4" fill="#000000" stroke="none" stroke-linejoin="miter" fill-opacity="1" stroke-linecap="butt" stroke-opacity="1" fill-rule="nonzero" stroke-width="1px" d="M41.575,76.364C48.028,76.364,54.124,74.495,59.331,71.335L54.436,66.44C50.609,68.443,46.248,69.6,41.575,69.6C26.267,69.6,14.03,57.362,14.03,42.01C14.03,37.337,15.142,32.976,17.189,29.194L12.205,24.21C9.09,29.461,7.221,35.557,7.221,42.01C7.221,60.789,22.796,76.364,41.575,76.364ZM41.531,14.42C56.839,14.42,69.121,26.657,69.165,42.01C69.165,46.593,68.053,50.91,66.095,54.692L70.99,59.587C74.105,54.47,75.929,48.418,75.929,42.01C75.929,23.231,60.354,7.656,41.531,7.656C35.167,7.656,29.115,9.48,23.998,12.551L28.893,17.535C32.675,15.532,36.947,14.42,41.531,14.42ZM54.213,42.811C55.326,41.12,55.993,39.028,55.993,36.625C55.993,30.039,51.276,25.589,44.245,25.589L37.125,25.589L41.887,30.395L43.222,30.395C47.316,30.395,49.719,32.709,49.719,36.625C49.719,37.159,49.63,37.649,49.452,38.049L54.213,42.811ZM34.5,58.03C36.591,58.03,37.704,56.695,37.704,54.47L37.704,49.797L31.385,43.478L31.385,54.47C31.385,56.606,32.453,58.03,34.5,58.03ZM34.5,58.03"/>
  <path stroke-opacity="1" fill-rule="nonzero" stroke-width="1px" stroke-linecap="butt" stroke-dasharray="none" stroke="none" stroke-miterlimit="4" stroke-linejoin="miter" fill="#000000" fill-opacity="1" d="M78.243,82.861C79.445,84.062,81.403,84.062,82.56,82.861C83.717,81.659,83.761,79.746,82.56,78.544L5.352,1.292C4.151,0.091,2.148,0.091,0.947,1.292C-0.21,2.449,-0.21,4.452,0.947,5.609L78.243,82.861ZM78.243,82.861"/>
</g>
  <g id="Medium-S" transform="matrix(1.0,0.0,0.0,1.0,1705.9173940622625,618.8474135935126)">  <path stroke-miterlimit="4" fill-opacity="1" stroke-linejoin="miter" fill-rule="nonzero" fill="#000000" stroke-dasharray="none" stroke-linecap="butt" stroke-opacity="1" stroke-width="1px" stroke="none" d="M41.575,76.364C48.028,76.364,54.124,74.495,59.331,71.335L54.436,66.44C50.609,68.443,46.248,69.6,41.575,69.6C26.267,69.6,14.03,57.362,14.03,42.01C14.03,37.337,15.142,32.976,17.189,29.194L12.205,24.21C9.09,29.461,7.221,35.557,7.221,42.01C7.221,60.789,22.796,76.364,41.575,76.364ZM41.531,14.42C56.839,14.42,69.121,26.657,69.165,42.01C69.165,46.593,68.053,50.91,66.095,54.692L70.99,59.587C74.105,54.47,75.929,48.418,75.929,42.01C75.929,23.231,60.354,7.656,41.531,7.656C35.167,7.656,29.115,9.48,23.998,12.551L28.893,17.535C32.675,15.532,36.947,14.42,41.531,14.42ZM54.213,42.811C55.326,41.12,55.993,39.028,55.993,36.625C55.993,30.039,51.276,25.589,44.245,25.589L37.125,25.589L41.887,30.395L43.222,30.395C47.316,30.395,49.719,32.709,49.719,36.625C49.719,37.159,49.63,37.649,49.452,38.049L54.213,42.811ZM34.5,58.03C36.591,58.03,37.704,56.695,37.704,54.47L37.704,49.797L31.385,43.478L31.385,54.47C31.385,56.606,32.453,58.03,34.5,58.03ZM34.5,58.03"/>
  <path stroke-miterlimit="4" fill="#000000" fill-opacity="1" fill-rule="nonzero" stroke="none" stroke-linecap="butt" stroke-dasharray="none" stroke-linejoin="miter" stroke-opacity="1" stroke-width="1px" d="M78.243,82.861C79.445,84.062,81.403,84.062,82.56,82.861C83.717,81.659,83.761,79.746,82.56,78.544L5.352,1.292C4.151,0.091,2.148,0.091,0.947,1.292C-0.21,2.449,-0.21,4.452,0.947,5.609L78.243,82.861ZM78.243,82.861"/>
</g>
  <g id="Regular-S" transform="matrix(1.0,0.0,0.0,1.0,1409.2073940622624,618.8474135935126)">  <path stroke-miterlimit="4" stroke-dasharray="none" stroke-linejoin="miter" fill-rule="nonzero" stroke-width="1px" fill="#000000" stroke-opacity="1" stroke-linecap="butt" stroke="none" fill-opacity="1" d="M41.575,76.364C48.028,76.364,54.124,74.495,59.331,71.335L54.436,66.44C50.609,68.443,46.248,69.6,41.575,69.6C26.267,69.6,14.03,57.362,14.03,42.01C14.03,37.337,15.142,32.976,17.189,29.194L12.205,24.21C9.09,29.461,7.221,35.557,7.221,42.01C7.221,60.789,22.796,76.364,41.575,76.364ZM41.531,14.42C56.839,14.42,69.121,26.657,69.165,42.01C69.165,46.593,68.053,50.91,66.095,54.692L70.99,59.587C74.105,54.47,75.929,48.418,75.929,42.01C75.929,23.231,60.354,7.656,41.531,7.656C35.167,7.656,29.115,9.48,23.998,12.551L28.893,17.535C32.675,15.532,36.947,14.42,41.531,14.42ZM54.213,42.811C55.326,41.12,55.993,39.028,55.993,36.625C55.993,30.039,51.276,25.589,44.245,25.589L37.125,25.589L41.887,30.395L43.222,30.395C47.316,30.395,49.719,32.709,49.719,36.625C49.719,37.159,49.63,37.649,49.452,38.049L54.213,42.811ZM34.5,58.03C36.591,58.03,37.704,56.695,37.704,54.47L37.704,49.797L31.385,43.478L31.385,54.47C31.385,56.606,32.453,58.03,34.5,58.03ZM34.5,58.03"/>
  <path stroke="none" stroke-width="1px" stroke-miterlimit="4" stroke-linecap="butt" stroke-opacity="1" fill-opacity="1" stroke-linejoin="miter" stroke-dasharray="none" fill="#000000" fill-rule="nonzero" d="M78.243,82.861C79.445,84.062,81.403,84.062,82.56,82.861C83.717,81.659,83.761,79.746,82.56,78.544L5.352,1.292C4.151,0.091,2.148,0.091,0.947,1.292C-0.21,2.449,-0.21,4.452,0.947,5.609L78.243,82.861ZM78.243,82.861"/>
</g>
  <g id="Light-S" transform="matrix(1.0,0.0,0.0,1.0,1112.4973940622626,618.8474135935126)">  <path stroke-linejoin="miter" fill-opacity="1" stroke-opacity="1" stroke-dasharray="none" stroke-miterlimit="4" fill-rule="nonzero" fill="#000000" stroke="none" stroke-linecap="butt" stroke-width="1px" d="M41.575,76.364C48.028,76.364,54.124,74.495,59.331,71.335L54.436,66.44C50.609,68.443,46.248,69.6,41.575,69.6C26.267,69.6,14.03,57.362,14.03,42.01C14.03,37.337,15.142,32.976,17.189,29.194L12.205,24.21C9.09,29.461,7.221,35.557,7.221,42.01C7.221,60.789,22.796,76.364,41.575,76.364ZM41.531,14.42C56.839,14.42,69.121,26.657,69.165,42.01C69.165,46.593,68.053,50.91,66.095,54.692L70.99,59.587C74.105,54.47,75.929,48.418,75.929,42.01C75.929,23.231,60.354,7.656,41.531,7.656C35.167,7.656,29.115,9.48,23.998,12.551L28.893,17.535C32.675,15.532,36.947,14.42,41.531,14.42ZM54.213,42.811C55.326,41.12,55.993,39.028,55.993,36.625C55.993,30.039,51.276,25.589,44.245,25.589L37.125,25.589L41.887,30.395L43.222,30.395C47.316,30.395,49.719,32.709,49.719,36.625C49.719,37.159,49.63,37.649,49.452,38.049L54.213,42.811ZM34.5,58.03C36.591,58.03,37.704,56.695,37.704,54.47L37.704,49.797L31.385,43.478L31.385,54.47C31.385,56.606,32.453,58.03,34.5,58.03ZM34.5,58.03"/>
  <path stroke-width="1px" stroke-linecap="butt" stroke-linejoin="miter" stroke-miterlimit="4" fill-opacity="1" fill="#000000" stroke="none" stroke-dasharray="none" stroke-opacity="1" fill-rule="nonzero" d="M78.243,82.861C79.445,84.062,81.403,84.062,82.56,82.861C83.717,81.659,83.761,79.746,82.56,78.544L5.352,1.292C4.151,0.091,2.148,0.091,0.947,1.292C-0.21,2.449,-0.21,4.452,0.947,5.609L78.243,82.861ZM78.243,82.861"/>
</g>
  <g id="Thin-S" transform="matrix(1.0,0.0,0.0,1.0,815.7873940622626,618.8474135935126)">  <path fill="#000000" stroke="none" stroke-linejoin="miter" stroke-linecap="butt" stroke-miterlimit="4" stroke-width="1px" fill-opacity="1" stroke-dasharray="none" fill-rule="nonzero" stroke-opacity="1" d="M41.575,76.364C48.028,76.364,54.124,74.495,59.331,71.335L54.436,66.44C50.609,68.443,46.248,69.6,41.575,69.6C26.267,69.6,14.03,57.362,14.03,42.01C14.03,37.337,15.142,32.976,17.189,29.194L12.205,24.21C9.09,29.461,7.221,35.557,7.221,42.01C7.221,60.789,22.796,76.364,41.575,76.364ZM41.531,14.42C56.839,14.42,69.121,26.657,69.165,42.01C69.165,46.593,68.053,50.91,66.095,54.692L70.99,59.587C74.105,54.47,75.929,48.418,75.929,42.01C75.929,23.231,60.354,7.656,41.531,7.656C35.167,7.656,29.115,9.48,23.998,12.551L28.893,17.535C32.675,15.532,36.947,14.42,41.531,14.42ZM54.213,42.811C55.326,41.12,55.993,39.028,55.993,36.625C55.993,30.039,51.276,25.589,44.245,25.589L37.125,25.589L41.887,30.395L43.222,30.395C47.316,30.395,49.719,32.709,49.719,36.625C49.719,37.159,49.63,37.649,49.452,38.049L54.213,42.811ZM34.5,58.03C36.591,58.03,37.704,56.695,37.704,54.47L37.704,49.797L31.385,43.478L31.385,54.47C31.385,56.606,32.453,58.03,34.5,58.03ZM34.5,58.03"/>
  <path stroke="none" stroke-dasharray="none" fill="#000000" stroke-width="1px" stroke-miterlimit="4" stroke-linecap="butt" stroke-opacity="1" fill-rule="nonzero" stroke-linejoin="miter" fill-opacity="1" d="M78.243,82.861C79.445,84.062,81.403,84.062,82.56,82.861C83.717,81.659,83.761,79.746,82.56,78.544L5.352,1.292C4.151,0.091,2.148,0.091,0.947,1.292C-0.21,2.449,-0.21,4.452,0.947,5.609L78.243,82.861ZM78.243,82.861"/>
</g>
  <g id="Ultralight-S" transform="matrix(1.0,0.0,0.0,1.0,519.0773940622626,618.8474135935126)">  <path fill-rule="nonzero" stroke-opacity="1" stroke-width="1px" fill="#000000" stroke-linecap="butt" stroke="none" stroke-miterlimit="4" stroke-dasharray="none" fill-opacity="1" stroke-linejoin="miter" d="M41.575,76.364C48.028,76.364,54.124,74.495,59.331,71.335L54.436,66.44C50.609,68.443,46.248,69.6,41.575,69.6C26.267,69.6,14.03,57.362,14.03,42.01C14.03,37.337,15.142,32.976,17.189,29.194L12.205,24.21C9.09,29.461,7.221,35.557,7.221,42.01C7.221,60.789,22.796,76.364,41.575,76.364ZM41.531,14.42C56.839,14.42,69.121,26.657,69.165,42.01C69.165,46.593,68.053,50.91,66.095,54.692L70.99,59.587C74.105,54.47,75.929,48.418,75.929,42.01C75.929,23.231,60.354,7.656,41.531,7.656C35.167,7.656,29.115,9.48,23.998,12.551L28.893,17.535C32.675,15.532,36.947,14.42,41.531,14.42ZM54.213,42.811C55.326,41.12,55.993,39.028,55.993,36.625C55.993,30.039,51.276,25.589,44.245,25.589L37.125,25.589L41.887,30.395L43.222,30.395C47.316,30.395,49.719,32.709,49.719,36.625C49.719,37.159,49.63,37.649,49.452,38.049L54.213,42.811ZM34.5,58.03C36.591,58.03,37.704,56.695,37.704,54.47L37.704,49.797L31.385,43.478L31.385,54.47C31.385,56.606,32.453,58.03,34.5,58.03ZM34.5,58.03"/>
  <path stroke-linejoin="miter" fill-opacity="1" stroke-opacity="1" fill-rule="nonzero" stroke-dasharray="none" stroke-width="1px" stroke="none" stroke-miterlimit="4" fill="#000000" stroke-linecap="butt" d="M78.243,82.861C79.445,84.062,81.403,84.062,82.56,82.861C83.717,81.659,83.761,79.746,82.56,78.544L5.352,1.292C4.151,0.091,2.148,0.091,0.947,1.292C-0.21,2.449,-0.21,4.452,0.947,5.609L78.243,82.861ZM78.243,82.861"/>
</g>
 </g>
</svg>
